<svg width="65" height="65" viewBox="0 0 65 65" fill="none" xmlns="http://www.w3.org/2000/svg">
<path d="M55.1219 12.7715L19.0037 8.6415C17.6255 8.48417 16.2411 8.8794 15.1537 9.74065C14.0663 10.6019 13.3645 11.859 13.202 13.2366L12.5736 18.7891H10.4724C7.58266 18.7891 5.20508 21.1909 5.20508 24.0809V51.152C5.20508 54.042 7.58266 56.3672 10.4724 56.3672H46.81C47.4967 56.3693 48.177 56.236 48.8122 55.975C49.4473 55.714 50.0247 55.3303 50.5114 54.8459C50.9982 54.3616 51.3846 53.786 51.6488 53.1522C51.9129 52.5184 52.0495 51.8387 52.0508 51.152V50.0765C53.0216 49.9789 53.9428 49.6 54.7014 48.9863C55.2477 48.5587 55.7032 48.0264 56.0411 47.4205C56.379 46.8146 56.5925 46.1474 56.6692 45.4579L59.7336 18.5739C59.8122 17.8901 59.7552 17.1975 59.5659 16.5357C59.3766 15.8739 59.0587 15.2559 58.6304 14.717C58.2021 14.1782 57.6717 13.7291 57.0697 13.3953C56.4676 13.0616 55.8057 12.8499 55.1218 12.7722L55.1219 12.7715ZM49.5117 51.152C49.5108 51.5054 49.4402 51.855 49.3038 52.181C49.1674 52.507 48.9679 52.8028 48.7169 53.0514C48.4659 53.3001 48.1682 53.4967 47.8409 53.63C47.5137 53.7633 47.1634 53.8307 46.81 53.8282H10.4724C9.75597 53.8342 9.06643 53.5558 8.55499 53.0541C8.04355 52.5524 7.75195 51.8684 7.74414 51.152V46.2379L18.1449 38.6678C18.7644 38.2225 19.5159 37.9991 20.278 38.0334C21.0402 38.0678 21.7685 38.358 22.3454 38.8572L29.6236 45.2119C30.5567 46.0275 31.7231 46.5285 32.9571 46.6436C34.191 46.7587 35.4299 46.482 36.4978 45.853L49.5117 38.2129V51.152ZM49.5117 35.2676L35.2118 43.6641C34.6037 44.0224 33.8981 44.1801 33.1952 44.1145C32.4924 44.049 31.828 43.7637 31.2966 43.2991L24.0222 36.9452C23.0149 36.0572 21.7342 35.5405 20.3927 35.4808C19.0512 35.4211 17.7297 35.8221 16.6475 36.617L7.74414 43.0962V24.0809C7.74896 23.3566 8.03718 22.6629 8.5471 22.1484C9.05701 21.6339 9.74808 21.3395 10.4724 21.3282H46.81C48.2998 21.3282 49.5117 22.5911 49.5117 24.0809V35.2676ZM57.2112 18.2833L54.1467 45.17C54.1071 45.5259 53.9969 45.8703 53.8225 46.1831C53.6481 46.4958 53.413 46.7707 53.131 46.9914C52.813 47.2395 52.4441 47.4143 52.0507 47.5033V24.0809C52.0508 21.1909 49.6997 18.7891 46.81 18.7891H15.1287L15.7254 13.5206C15.7661 13.169 15.8758 12.8289 16.0481 12.5197C16.2205 12.2106 16.4521 11.9385 16.7298 11.719C17.0075 11.4995 17.3257 11.337 17.6663 11.2407C18.0069 11.1444 18.3632 11.1163 18.7147 11.158L54.8363 15.2917C55.1887 15.3321 55.5297 15.4416 55.8398 15.6139C56.1499 15.7861 56.4231 16.0178 56.6437 16.2956C56.8642 16.5735 57.0279 16.892 57.1254 17.2331C57.2228 17.5742 57.2521 17.9312 57.2116 18.2836L57.2112 18.2833Z" fill="url(#paint0_linear)"/>
<path d="M32.9766 25.4587C31.8877 25.4587 30.8232 25.7816 29.9178 26.3866C29.0124 26.9916 28.3067 27.8515 27.89 28.8575C27.4734 29.8636 27.3644 30.9706 27.5768 32.0386C27.7893 33.1066 28.3137 34.0876 29.0837 34.8575C29.8538 35.6275 30.8348 36.1518 31.9028 36.3641C32.9708 36.5765 34.0778 36.4674 35.0838 36.0506C36.0898 35.6339 36.9497 34.9281 37.5546 34.0227C38.1595 33.1172 38.4823 32.0527 38.4822 30.9638C38.4804 29.5042 37.8998 28.1049 36.8676 27.0729C35.8355 26.0409 34.4362 25.4604 32.9766 25.4587ZM32.9766 33.9308C32.3899 33.9308 31.8164 33.7568 31.3285 33.4309C30.8407 33.1049 30.4605 32.6417 30.2359 32.0996C30.0114 31.5576 29.9526 30.9612 30.067 30.3857C30.1815 29.8103 30.4639 29.2817 30.8788 28.8668C31.2936 28.4519 31.8221 28.1694 32.3975 28.0548C32.973 27.9403 33.5694 27.999 34.1115 28.2234C34.6535 28.4479 35.1169 28.828 35.4429 29.3158C35.7689 29.8036 35.943 30.3771 35.9431 30.9638C35.9424 31.7504 35.6296 32.5045 35.0735 33.0608C34.5173 33.617 33.7632 33.9299 32.9766 33.9308Z" fill="url(#paint1_linear)"/>
<defs>
<linearGradient id="paint0_linear" x1="32.4871" y1="2.28522" x2="32.4871" y2="59.1602" gradientUnits="userSpaceOnUse">
<stop stop-color="#00EFD1"/>
<stop offset="1" stop-color="#00ACEA"/>
</linearGradient>
<linearGradient id="paint1_linear" x1="2887.67" y1="223.66" x2="2887.67" y2="5156.66" gradientUnits="userSpaceOnUse">
<stop stop-color="#00EFD1"/>
<stop offset="1" stop-color="#00ACEA"/>
</linearGradient>
</defs>
</svg>
