<svg width="65" height="65" viewBox="0 0 65 65" fill="none" xmlns="http://www.w3.org/2000/svg">
<path d="M61.6453 32.6038L54.0296 16.2502H57.2686C57.6053 16.2502 57.9282 16.1164 58.1663 15.8784C58.4044 15.6403 58.5381 15.3174 58.5381 14.9807C58.5381 14.644 58.4044 14.3211 58.1663 14.083C57.9282 13.8449 57.6053 13.7111 57.2686 13.7111H38.0626C37.7753 12.4507 37.0684 11.3252 36.0578 10.5191C35.0472 9.71292 33.7928 9.27388 32.5 9.27388C31.2073 9.27388 29.9528 9.71292 28.9422 10.5191C27.9316 11.3252 27.2248 12.4507 26.9374 13.7111H7.73147C7.39477 13.7111 7.07186 13.8449 6.83377 14.083C6.59569 14.3211 6.46193 14.644 6.46193 14.9807C6.46193 15.3174 6.59569 15.6403 6.83377 15.8784C7.07186 16.1164 7.39477 16.2502 7.73147 16.2502H10.9704L3.35476 32.6038C3.10184 32.6901 2.88226 32.8534 2.72679 33.0708C2.57132 33.2881 2.48775 33.5487 2.48779 33.8159C2.48675 35.8893 3.10113 37.9164 4.25311 39.6403C5.40509 41.3643 7.04282 42.7075 8.95885 43.4999C10.8749 44.2922 12.983 44.4981 15.0161 44.0913C17.0492 43.6846 18.9158 42.6835 20.3796 41.215C21.3662 40.2531 22.1509 39.1038 22.6875 37.8345C23.2241 36.5653 23.5018 35.2017 23.5044 33.8237C23.5046 33.5418 23.4124 33.2677 23.2419 33.0432C23.0715 32.8188 22.8321 32.6563 22.5606 32.5808L14.9551 16.2502H26.9371C27.172 17.3031 27.6997 18.2681 28.4594 19.034C29.219 19.8 30.1796 20.3356 31.2305 20.5793V45.4277C29.0622 45.7408 27.0792 46.8242 25.6441 48.4795C24.2091 50.1348 23.418 52.2515 23.4156 54.4423C23.4149 54.7811 23.5477 55.1066 23.7854 55.3482C24.023 55.5897 24.3463 55.7279 24.6852 55.7326H40.3149C40.6537 55.7279 40.977 55.5897 41.2147 55.3482C41.4523 55.1066 41.5852 54.7811 41.5844 54.4423C41.582 52.2515 40.7909 50.1348 39.3559 48.4795C37.9209 46.8242 35.9378 45.7408 33.7696 45.4277V20.5793C34.8204 20.3356 35.7809 19.7999 36.5405 19.0339C37.3 18.268 37.8277 17.303 38.0626 16.2502H50.0449L42.4394 32.5813C42.1684 32.655 41.9292 32.8158 41.7586 33.0389C41.5881 33.2621 41.4957 33.5351 41.4957 33.8159C41.4946 35.8894 42.109 37.9165 43.261 39.6404C44.4129 41.3644 46.0507 42.7076 47.9667 43.5C49.8828 44.2924 51.9909 44.4982 54.0241 44.0914C56.0572 43.6847 57.9238 42.6836 59.3876 41.215C60.3743 40.2513 61.1588 39.1004 61.6953 37.8297C62.2317 36.559 62.5093 35.1941 62.5117 33.8148C62.5118 33.5478 62.4283 33.2874 62.2729 33.0702C62.1175 32.853 61.8981 32.6899 61.6453 32.6038ZM12.963 41.7063C11.0771 41.7101 9.25186 41.0406 7.81571 39.8184C6.37955 38.5961 5.4268 36.9014 5.12893 35.0393H20.8584C20.5372 36.9019 19.5693 38.5915 18.1252 39.8109C16.681 41.0303 14.8531 41.7013 12.963 41.7058V41.7063ZM19.7388 32.5002H6.18708L12.963 17.9657L19.7388 32.5002ZM38.9214 53.1936H26.0784C26.3724 51.7067 27.1734 50.3679 28.3445 49.4058C29.5156 48.4436 30.9843 47.9177 32.5 47.9177C34.0157 47.9177 35.4844 48.4436 36.6555 49.4058C37.8266 50.3679 38.6276 51.7067 38.9217 53.1936H38.9214ZM32.5 18.1838C31.8735 18.1838 31.2611 17.998 30.7401 17.65C30.2192 17.3019 29.8132 16.8072 29.5734 16.2283C29.3337 15.6495 29.2709 15.0126 29.3932 14.3981C29.5154 13.7836 29.8171 13.2192 30.2601 12.7762C30.7031 12.3331 31.2675 12.0314 31.882 11.9092C32.4965 11.787 33.1334 11.8497 33.7123 12.0895C34.2911 12.3292 34.7858 12.7353 35.1339 13.2562C35.482 13.7771 35.6678 14.3896 35.6678 15.0161C35.6668 15.8559 35.3328 16.6611 34.7389 17.255C34.145 17.8488 33.3399 18.1829 32.5 18.1838ZM52.0371 17.9657L58.813 32.5002H45.2612L52.0371 17.9657ZM51.971 41.706C50.0851 41.7098 48.2597 41.0405 46.8234 39.8183C45.3872 38.5961 44.4343 36.9015 44.1363 35.0393H59.8658C59.5445 36.9017 58.5767 38.5913 57.1327 39.8106C55.6887 41.03 53.8609 41.7011 51.971 41.7058V41.706Z" fill="url(#paint0_linear)"/>
<defs>
<linearGradient id="paint0_linear" x1="32.5" y1="0.873381" x2="32.5" y2="62.9702" gradientUnits="userSpaceOnUse">
<stop stop-color="#00EFD1"/>
<stop offset="1" stop-color="#00ACEA"/>
</linearGradient>
</defs>
</svg>
