<svg width="65" height="65" viewBox="0 0 65 65" fill="none" xmlns="http://www.w3.org/2000/svg">
<path d="M52.3868 41.1328H49.6387V21.7422C50.6452 21.5214 51.5461 20.9636 52.1925 20.1611C52.8389 19.3586 53.192 18.3595 53.1934 17.3291V15.1553C53.199 14.8922 53.1215 14.634 52.9718 14.4175L48.8705 6.06402C48.7687 5.8491 48.6091 5.66677 48.4095 5.53746C48.21 5.40815 47.9783 5.33696 47.7406 5.33188H18.0953C17.8727 5.33659 17.6552 5.39866 17.4637 5.51209C17.2722 5.62552 17.1133 5.78646 17.0022 5.97934L12.1052 14.3075C11.9067 14.5448 11.8006 14.8459 11.8066 15.1553V15.2053V17.3291C11.8037 17.9234 11.9192 18.5123 12.1466 19.0614C12.3739 19.6105 12.7084 20.1087 13.1305 20.527C13.7329 21.1505 14.5111 21.5752 15.3613 21.7446V41.1328H12.613C12.2678 41.1396 11.9384 41.2794 11.6936 41.5229C11.4488 41.7665 11.3074 42.0952 11.2988 42.4404V58.3497C11.307 58.696 11.448 59.026 11.6926 59.2713C11.9372 59.5167 12.2667 59.6587 12.613 59.6679H52.3868C52.7332 59.6587 53.0627 59.5167 53.3073 59.2714C53.552 59.026 53.693 58.696 53.7012 58.3497V42.4404C53.6926 42.0951 53.5511 41.7665 53.3063 41.5229C53.0615 41.2794 52.7321 41.1396 52.3868 41.1328ZM50.6543 17.3291C50.6594 17.5884 50.6124 17.8461 50.5162 18.0869C50.42 18.3278 50.2765 18.5469 50.0942 18.7314C49.9118 18.9158 49.6944 19.0619 49.4547 19.1609C49.2149 19.2599 48.9578 19.3098 48.6985 19.3078C48.6407 19.3078 48.5833 19.3037 48.5042 19.2985C48.0474 19.2575 47.6196 19.0568 47.2961 18.7317C47.1121 18.5476 46.9663 18.3288 46.8672 18.0881C46.7681 17.8474 46.7176 17.5894 46.7188 17.3291V16.5039H50.6543V17.3291ZM23.8874 23.6503C24.7127 23.6504 25.5277 23.4669 26.2733 23.1131C27.0189 22.7593 27.6765 22.2442 28.1984 21.6049C28.3145 21.7455 28.4366 21.8816 28.5675 22.0125C29.1183 22.5663 29.7798 22.9977 30.5086 23.2786C31.2374 23.5595 32.0173 23.6836 32.7973 23.6427C33.5774 23.6019 34.34 23.397 35.0355 23.0415C35.731 22.686 36.3437 22.1878 36.8337 21.5795C36.9563 21.7304 37.0865 21.8749 37.2238 22.0125C37.8217 22.6144 38.5497 23.0712 39.3519 23.3476C40.154 23.624 41.0088 23.7128 41.8506 23.607C42.6924 23.5013 43.4988 23.2038 44.2076 22.7376C44.9164 22.2713 45.5088 21.6487 45.9393 20.9175C46.2964 21.1834 46.6864 21.402 47.0996 21.5678V41.1328H42.3603C41.71 39.2777 40.5688 37.6336 39.0583 36.3756C37.2125 34.8523 34.8932 34.0204 32.5 34.0234H32.485C30.3062 34.0298 28.1842 34.7191 26.4176 35.9944C24.6509 37.2697 23.3286 39.0668 22.6366 41.1328H17.9004V21.5684C18.3259 21.3932 18.7277 21.1654 19.0967 20.8904C19.3358 21.2991 19.6254 21.6761 19.9587 22.0125C20.4725 22.5319 21.0844 22.9442 21.7588 23.2253C22.4332 23.5065 23.1567 23.6509 23.8874 23.6503ZM20.8203 18.072V16.5039H26.9141V18.072C26.9141 18.8801 26.5931 19.6551 26.0217 20.2265C25.4503 20.7979 24.6753 21.1189 23.8672 21.1189C23.0591 21.1189 22.2841 20.7979 21.7127 20.2265C21.1413 19.6551 20.8203 18.8801 20.8203 18.072ZM38.0859 18.072V16.5039H44.1797V18.072C44.1797 18.8801 43.8587 19.6551 43.2873 20.2265C42.7159 20.7979 41.9409 21.1189 41.1328 21.1189C40.3247 21.1189 39.5497 20.7979 38.9783 20.2265C38.4069 19.6551 38.0859 18.8801 38.0859 18.072ZM46.9508 7.87107L49.8942 13.8379H46.2952L43.7747 7.87107H46.9508ZM41.0186 7.87107L43.5586 13.9648H37.8004L36.2997 7.87107H41.0186ZM31.3177 7.87107H33.6831L35.1839 13.9648H29.8165L31.3177 7.87107ZM29.4531 16.5039H35.5469V18.072C35.5469 18.8801 35.2259 19.6551 34.6545 20.2265C34.0831 20.7979 33.3081 21.1189 32.5 21.1189C31.6919 21.1189 30.9169 20.7979 30.3455 20.2265C29.7741 19.6551 29.4531 18.8801 29.4531 18.072V16.5039ZM28.7003 7.87107L27.1996 13.9648H21.5983L24.6604 7.87107H28.7003ZM18.8197 7.87107H21.8105L18.7722 13.8379H15.2951L18.8197 7.87107ZM14.9056 18.7371C14.9023 18.7338 14.904 18.7305 14.9007 18.7272C14.7194 18.5431 14.5769 18.3245 14.4816 18.0844C14.3862 17.8442 14.34 17.5874 14.3457 17.3291V16.5039H18.2812V17.3291C18.2828 17.8201 18.1012 18.294 17.7719 18.6582C17.4426 19.0225 16.9893 19.2508 16.5006 19.2985C16.4235 19.3036 16.3505 19.3078 16.2914 19.3078C16.034 19.3101 15.7787 19.2608 15.5407 19.1627C15.3027 19.0647 15.0867 18.92 14.9056 18.7371ZM51.1621 57.1289H13.8379V43.6719H23.6039C23.8913 43.6759 24.1715 43.581 24.3972 43.403C24.623 43.225 24.7807 42.9748 24.8438 42.6943C25.2361 40.9842 26.1877 39.4539 27.5479 38.3458C28.9369 37.194 30.6843 36.5633 32.4887 36.5625H32.5C36.0835 36.5625 39.3744 39.1841 40.1572 42.7153C40.2216 42.9932 40.3801 43.2403 40.6059 43.4146C40.8318 43.589 41.1109 43.6799 41.3961 43.6719H51.1621V57.1289Z" fill="url(#paint0_linear)"/>
<path d="M37.5339 42.0585L34.8012 41.6635L33.5791 39.1868C33.4743 38.9743 33.3121 38.7955 33.1109 38.6704C32.9097 38.5453 32.6775 38.4791 32.4407 38.4791C32.2038 38.4791 31.9716 38.5453 31.7704 38.6704C31.5692 38.7955 31.407 38.9743 31.3022 39.1868L30.0799 41.6635L27.3469 42.0585C27.1124 42.0923 26.892 42.1912 26.7108 42.3438C26.5296 42.4964 26.3946 42.6966 26.3213 42.9219C26.2479 43.1472 26.2391 43.3885 26.2957 43.6185C26.3524 43.8486 26.4723 44.0582 26.6419 44.2236L28.6177 46.1513L28.1531 48.8753C28.1133 49.1088 28.1395 49.3488 28.2289 49.5681C28.3183 49.7874 28.4673 49.9773 28.659 50.1164C28.8506 50.2555 29.0774 50.3382 29.3136 50.3552C29.5499 50.3722 29.7861 50.3227 29.9957 50.2124L32.4406 48.9257L34.8855 50.2124C35.0952 50.3228 35.3317 50.3723 35.5682 50.3552C35.8046 50.3382 36.0315 50.2552 36.2233 50.1159C36.415 49.9765 36.5639 49.7862 36.6531 49.5665C36.7422 49.3469 36.7681 49.1067 36.7278 48.8731L36.2581 46.1513L38.2383 44.2248C38.4082 44.0595 38.5284 43.8499 38.5853 43.6198C38.6422 43.3896 38.6336 43.1482 38.5603 42.9227C38.4871 42.6973 38.3522 42.4968 38.1709 42.3441C37.9896 42.1913 37.7692 42.0924 37.5346 42.0585H37.5339ZM34.0077 44.7981C33.86 44.942 33.7496 45.1197 33.686 45.3158C33.6223 45.5119 33.6075 45.7206 33.6426 45.9238L33.7878 46.7653L33.0323 46.3676C32.85 46.2718 32.6471 46.2217 32.4411 46.2217C32.2351 46.2217 32.0322 46.2718 31.8499 46.3676L31.0882 46.7683L31.2326 45.9215C31.2672 45.7189 31.252 45.5109 31.1885 45.3155C31.1249 45.12 31.0149 44.9429 30.8678 44.7994L30.257 44.2033L31.1042 44.081C31.308 44.0515 31.5017 43.9728 31.6684 43.8518C31.8351 43.7308 31.9698 43.571 32.061 43.3863L32.4406 42.6171L32.8202 43.3863C32.9113 43.571 33.0461 43.7308 33.2128 43.8518C33.3795 43.9728 33.5731 44.0515 33.777 44.081L34.6199 44.2027L34.0077 44.7981Z" fill="url(#paint1_linear)"/>
<defs>
<linearGradient id="paint0_linear" x1="32.5" y1="1.26951" x2="32.5" y2="63.7325" gradientUnits="userSpaceOnUse">
<stop stop-color="#00EFD1"/>
<stop offset="1" stop-color="#00ACEA"/>
</linearGradient>
<linearGradient id="paint1_linear" x1="3185.52" y1="157.274" x2="3185.52" y2="6002.16" gradientUnits="userSpaceOnUse">
<stop stop-color="#00EFD1"/>
<stop offset="1" stop-color="#00ACEA"/>
</linearGradient>
</defs>
</svg>
