<svg width="65" height="65" viewBox="0 0 65 65" fill="none" xmlns="http://www.w3.org/2000/svg">
<path d="M53.1509 9.90214H46.0839V6.58689C46.0839 6.25019 45.9502 5.92728 45.7121 5.6892C45.474 5.45111 45.1511 5.31736 44.8144 5.31736C44.4777 5.31736 44.1548 5.45111 43.9167 5.6892C43.6786 5.92728 43.5449 6.25019 43.5449 6.58689V9.90214H21.455V6.58689C21.455 6.25019 21.3213 5.92728 21.0832 5.6892C20.8451 5.45111 20.5222 5.31736 20.1855 5.31736C19.8488 5.31736 19.5259 5.45111 19.2878 5.6892C19.0497 5.92728 18.916 6.25019 18.916 6.58689V9.90214H11.849C11.0761 9.90143 10.3107 10.0532 9.5965 10.3487C8.88233 10.6442 8.23348 11.0777 7.68708 11.6244C7.14069 12.171 6.70749 12.8201 6.41229 13.5344C6.11709 14.2486 5.96569 15.0142 5.96676 15.7871V53.7796C5.96562 54.5526 6.11695 55.3183 6.41209 56.0328C6.70722 56.7474 7.14037 57.3967 7.68673 57.9436C8.2331 58.4905 8.88196 58.9243 9.59617 59.2202C10.3104 59.516 11.0759 59.6681 11.849 59.6678H53.1509C53.924 59.6681 54.6895 59.516 55.4038 59.2202C56.118 58.9243 56.7668 58.4905 57.3132 57.9436C57.8596 57.3967 58.2927 56.7474 58.5878 56.0328C58.883 55.3183 59.0343 54.5526 59.0332 53.7796V15.7871C59.0342 15.0142 58.8828 14.2486 58.5876 13.5344C58.2924 12.8201 57.8592 12.171 57.3128 11.6244C56.7664 11.0777 56.1176 10.6442 55.4034 10.3487C54.6893 10.0532 53.9238 9.90143 53.1509 9.90214ZM56.4941 53.7796C56.4956 54.2193 56.4102 54.655 56.2428 55.0616C56.0754 55.4683 55.8293 55.8378 55.5187 56.149C55.208 56.4603 54.8389 56.707 54.4326 56.8752C54.0262 57.0433 53.5907 57.1294 53.1509 57.1287H11.849C11.4093 57.1294 10.9737 57.0433 10.5674 56.8752C10.161 56.707 9.79193 56.4603 9.48126 56.149C9.17059 55.8378 8.92448 55.4683 8.75709 55.0616C8.58969 54.655 8.5043 54.2193 8.50582 53.7796V24.1209H56.4941V53.7796ZM56.4941 21.5818H8.50582V15.7871C8.50438 15.3475 8.58985 14.912 8.75732 14.5056C8.92479 14.0992 9.17095 13.7299 9.48164 13.4189C9.79234 13.108 10.1614 12.8615 10.5677 12.6937C10.974 12.5259 11.4094 12.4401 11.849 12.4412H18.916V15.9856C18.916 16.3223 19.0497 16.6452 19.2878 16.8833C19.5259 17.1214 19.8488 17.2551 20.1855 17.2551C20.5222 17.2551 20.8451 17.1214 21.0832 16.8833C21.3213 16.6452 21.455 16.3223 21.455 15.9856V12.4412H43.5449V15.9856C43.5449 16.3223 43.6786 16.6452 43.9167 16.8833C44.1548 17.1214 44.4777 17.2551 44.8144 17.2551C45.1511 17.2551 45.474 17.1214 45.7121 16.8833C45.9502 16.6452 46.0839 16.3223 46.0839 15.9856V12.4412H53.1509C53.5905 12.4401 54.0259 12.5259 54.4322 12.6937C54.8385 12.8615 55.2076 13.108 55.5183 13.4189C55.829 13.7299 56.0751 14.0992 56.2426 14.5056C56.4101 14.912 56.4955 15.3475 56.4941 15.7871V21.5818Z" fill="url(#paint0_linear)"/>
<path d="M18.7988 39.7598C20.1708 39.7582 21.4861 39.2126 22.4562 38.2424C23.4263 37.2723 23.972 35.957 23.9736 34.5851C23.9668 33.2171 23.4186 31.9075 22.4489 30.9425C21.4792 29.9776 20.1669 29.436 18.7989 29.436C17.4309 29.436 16.1186 29.9776 15.1489 30.9425C14.1792 31.9075 13.631 33.2171 13.6242 34.5851C13.6258 35.957 14.1715 37.2723 15.1416 38.2424C16.1116 39.2125 17.4269 39.7582 18.7988 39.7598ZM18.7988 31.9495C19.146 31.9458 19.4904 32.0114 19.8119 32.1425C20.1333 32.2736 20.4254 32.4676 20.6709 32.7131C20.9164 32.9586 21.1104 33.2506 21.2415 33.572C21.3726 33.8935 21.4382 34.2379 21.4345 34.5851C21.4369 34.9327 21.3705 35.2774 21.2392 35.5993C21.1078 35.9212 20.914 36.2139 20.6691 36.4606C20.4241 36.7073 20.1327 36.903 19.8117 37.0366C19.4908 37.1702 19.1466 37.239 18.7989 37.239C18.4512 37.239 18.107 37.1702 17.786 37.0366C17.4651 36.903 17.1737 36.7073 16.9287 36.4606C16.6838 36.2139 16.49 35.9212 16.3586 35.5993C16.2273 35.2774 16.1609 34.9327 16.1633 34.5851C16.1595 34.2379 16.2252 33.8935 16.3563 33.5721C16.4874 33.2506 16.6814 32.9586 16.9269 32.7131C17.1724 32.4676 17.4644 32.2736 17.7858 32.1425C18.1073 32.0114 18.4517 31.9458 18.7988 31.9495Z" fill="url(#paint1_linear)"/>
<path d="M32.4999 39.7597C33.1817 39.763 33.8573 39.6317 34.4881 39.3731C35.1189 39.1146 35.6924 38.734 36.1756 38.2531C36.6588 37.7723 37.0423 37.2007 37.304 36.5712C37.5656 35.9417 37.7003 35.2667 37.7003 34.585C37.7003 33.9033 37.5656 33.2283 37.304 32.5988C37.0423 31.9693 36.6588 31.3977 36.1756 30.9169C35.6924 30.436 35.1189 30.0554 34.4881 29.7968C33.8573 29.5383 33.1817 29.4069 32.4999 29.4103C31.8184 29.403 31.1422 29.5318 30.511 29.7892C29.8799 30.0466 29.3065 30.4275 28.8245 30.9095C28.3425 31.3915 27.9616 31.9649 27.7041 32.596C27.4467 33.2271 27.3179 33.9033 27.3252 34.5849C27.3268 35.9569 27.8725 37.2722 28.8426 38.2423C29.8127 39.2124 31.128 39.7581 32.4999 39.7597ZM32.4999 31.9494C33.0212 31.9494 33.5308 32.104 33.9643 32.3936C34.3977 32.6832 34.7355 33.0948 34.935 33.5765C35.1345 34.0581 35.1867 34.588 35.085 35.0993C34.9833 35.6106 34.7322 36.0802 34.3636 36.4488C33.995 36.8174 33.5253 37.0684 33.0141 37.1701C32.5028 37.2718 31.9728 37.2196 31.4912 37.0201C31.0096 36.8206 30.598 36.4827 30.3084 36.0493C30.0188 35.6158 29.8643 35.1062 29.8643 34.5849C29.8605 34.2378 29.9262 33.8934 30.0573 33.5719C30.1884 33.2505 30.3824 32.9584 30.6279 32.7129C30.8734 32.4675 31.1655 32.2735 31.4869 32.1424C31.8084 32.0112 32.1528 31.9456 32.4999 31.9494Z" fill="url(#paint2_linear)"/>
<path d="M46.2011 39.7597C47.5691 39.7529 48.8787 39.2047 49.8436 38.235C50.8086 37.2653 51.3502 35.953 51.3502 34.585C51.3502 33.217 50.8086 31.9047 49.8436 30.935C48.8787 29.9653 47.5691 29.4171 46.2011 29.4103C45.5195 29.4029 44.8433 29.5317 44.2122 29.7892C43.581 30.0466 43.0076 30.4275 42.5256 30.9095C42.0436 31.3914 41.6627 31.9648 41.4053 32.596C41.1478 33.2271 41.019 33.9033 41.0264 34.5849C41.0279 35.9569 41.5736 37.2722 42.5437 38.2423C43.5139 39.2124 44.8292 39.7581 46.2011 39.7597ZM46.2011 31.9494C46.7224 31.9494 47.232 32.104 47.6655 32.3936C48.0989 32.6832 48.4367 33.0948 48.6362 33.5765C48.8357 34.0581 48.8879 34.588 48.7862 35.0993C48.6844 35.6106 48.4334 36.0802 48.0648 36.4488C47.6962 36.8174 47.2265 37.0684 46.7153 37.1701C46.204 37.2718 45.674 37.2196 45.1924 37.0201C44.7108 36.8206 44.2992 36.4827 44.0096 36.0493C43.72 35.6158 43.5654 35.1062 43.5655 34.5849C43.5617 34.2378 43.6273 33.8934 43.7585 33.5719C43.8896 33.2505 44.0836 32.9584 44.3291 32.7129C44.5746 32.4675 44.8666 32.2735 45.1881 32.1424C45.5096 32.0112 45.854 31.9456 46.2011 31.9494Z" fill="url(#paint3_linear)"/>
<path d="M18.7988 51.4088C20.1708 51.4073 21.4861 50.8616 22.4562 49.8914C23.4263 48.9213 23.972 47.606 23.9736 46.2341C23.9668 44.8661 23.4186 43.5565 22.4489 42.5916C21.4792 41.6266 20.1669 41.085 18.7989 41.085C17.4309 41.085 16.1186 41.6266 15.1489 42.5916C14.1792 43.5565 13.631 44.8661 13.6242 46.2341C13.6258 47.606 14.1714 48.9213 15.1415 49.8914C16.1116 50.8615 17.4269 51.4072 18.7988 51.4088ZM18.7988 43.5985C19.146 43.5948 19.4904 43.6604 19.8119 43.7915C20.1333 43.9226 20.4254 44.1166 20.6709 44.3621C20.9164 44.6076 21.1104 44.8996 21.2415 45.221C21.3726 45.5425 21.4382 45.8869 21.4345 46.2341C21.4369 46.5817 21.3705 46.9264 21.2392 47.2483C21.1078 47.5702 20.914 47.8629 20.6691 48.1096C20.4241 48.3563 20.1327 48.552 19.8117 48.6856C19.4908 48.8192 19.1466 48.888 18.7989 48.888C18.4512 48.888 18.107 48.8192 17.786 48.6856C17.4651 48.552 17.1737 48.3563 16.9287 48.1096C16.6838 47.8629 16.49 47.5702 16.3586 47.2483C16.2273 46.9264 16.1609 46.5817 16.1633 46.2341C16.1595 45.8869 16.2252 45.5425 16.3563 45.2211C16.4874 44.8996 16.6814 44.6076 16.9269 44.3621C17.1724 44.1166 17.4644 43.9226 17.7858 43.7915C18.1073 43.6604 18.4517 43.5948 18.7988 43.5985Z" fill="url(#paint4_linear)"/>
<path d="M32.4999 51.4087C33.1817 51.4121 33.8573 51.2807 34.4881 51.0222C35.1189 50.7636 35.6924 50.383 36.1756 49.9022C36.6588 49.4213 37.0423 48.8497 37.304 48.2202C37.5656 47.5907 37.7003 46.9157 37.7003 46.234C37.7003 45.5523 37.5656 44.8773 37.304 44.2478C37.0423 43.6183 36.6588 43.0467 36.1756 42.5659C35.6924 42.085 35.1189 41.7044 34.4881 41.4459C33.8573 41.1873 33.1817 41.056 32.4999 41.0594C31.8184 41.052 31.1422 41.1808 30.511 41.4382C29.8799 41.6957 29.3065 42.0765 28.8245 42.5585C28.3425 43.0405 27.9616 43.6139 27.7041 44.245C27.4467 44.8762 27.3179 45.5524 27.3252 46.234C27.3268 47.6059 27.8725 48.9212 28.8426 49.8913C29.8127 50.8615 31.128 51.4071 32.4999 51.4087ZM32.4999 43.5984C33.0212 43.5984 33.5308 43.753 33.9643 44.0426C34.3977 44.3322 34.7355 44.7439 34.935 45.2255C35.1345 45.7071 35.1867 46.2371 35.085 46.7483C34.9833 47.2596 34.7322 47.7292 34.3636 48.0978C33.995 48.4664 33.5253 48.7174 33.0141 48.8191C32.5028 48.9208 31.9728 48.8686 31.4912 48.6691C31.0096 48.4696 30.598 48.1317 30.3084 47.6983C30.0188 47.2648 29.8643 46.7553 29.8643 46.234C29.8605 45.8868 29.9262 45.5424 30.0573 45.2209C30.1884 44.8995 30.3824 44.6074 30.6279 44.362C30.8734 44.1165 31.1655 43.9225 31.4869 43.7914C31.8084 43.6603 32.1528 43.5947 32.4999 43.5984Z" fill="url(#paint5_linear)"/>
<path d="M46.2011 51.4087C47.5691 51.4019 48.8787 50.8537 49.8436 49.884C50.8086 48.9143 51.3502 47.602 51.3502 46.234C51.3502 44.866 50.8086 43.5537 49.8436 42.584C48.8787 41.6143 47.5691 41.0661 46.2011 41.0594C45.5195 41.052 44.8433 41.1808 44.2122 41.4382C43.581 41.6957 43.0076 42.0765 42.5256 42.5585C42.0437 43.0405 41.6628 43.6139 41.4053 44.245C41.1479 44.8762 41.019 45.5524 41.0264 46.234C41.0279 47.6059 41.5736 48.9212 42.5437 49.8913C43.5139 50.8615 44.8292 51.4072 46.2011 51.4087ZM46.2011 43.5984C46.7224 43.5984 47.232 43.753 47.6654 44.0426C48.0989 44.3322 48.4367 44.7439 48.6362 45.2255C48.8357 45.7071 48.8879 46.2371 48.7861 46.7483C48.6844 47.2596 48.4334 47.7292 48.0648 48.0978C47.6962 48.4664 47.2265 48.7175 46.7152 48.8191C46.204 48.9208 45.674 48.8686 45.1924 48.6691C44.7108 48.4696 44.2992 48.1317 44.0096 47.6983C43.72 47.2648 43.5654 46.7553 43.5655 46.234C43.5617 45.8868 43.6273 45.5424 43.7585 45.2209C43.8896 44.8995 44.0836 44.6075 44.3291 44.362C44.5746 44.1165 44.8666 43.9225 45.1881 43.7914C45.5096 43.6603 45.854 43.5947 46.2011 43.5984Z" fill="url(#paint6_linear)"/>
<defs>
<linearGradient id="paint0_linear" x1="32.5" y1="2.28496" x2="32.5" y2="59.16" gradientUnits="userSpaceOnUse">
<stop stop-color="#00EFD1"/>
<stop offset="1" stop-color="#00ACEA"/>
</linearGradient>
<linearGradient id="paint1_linear" x1="1546.13" y1="215.265" x2="1546.13" y2="4840.35" gradientUnits="userSpaceOnUse">
<stop stop-color="#00EFD1"/>
<stop offset="1" stop-color="#00ACEA"/>
</linearGradient>
<linearGradient id="paint2_linear" x1="32.5" y1="2.28516" x2="32.5" y2="59.1601" gradientUnits="userSpaceOnUse">
<stop stop-color="#00EFD1"/>
<stop offset="1" stop-color="#00ACEA"/>
</linearGradient>
<linearGradient id="paint3_linear" x1="3798.21" y1="215.704" x2="3798.21" y2="4852.34" gradientUnits="userSpaceOnUse">
<stop stop-color="#00EFD1"/>
<stop offset="1" stop-color="#00ACEA"/>
</linearGradient>
<linearGradient id="paint4_linear" x1="1546.13" y1="226.914" x2="1546.13" y2="4851.99" gradientUnits="userSpaceOnUse">
<stop stop-color="#00EFD1"/>
<stop offset="1" stop-color="#00ACEA"/>
</linearGradient>
<linearGradient id="paint5_linear" x1="32.5" y1="2.28498" x2="32.5" y2="59.1599" gradientUnits="userSpaceOnUse">
<stop stop-color="#00EFD1"/>
<stop offset="1" stop-color="#00ACEA"/>
</linearGradient>
<linearGradient id="paint6_linear" x1="3798.21" y1="227.353" x2="3798.21" y2="4863.99" gradientUnits="userSpaceOnUse">
<stop stop-color="#00EFD1"/>
<stop offset="1" stop-color="#00ACEA"/>
</linearGradient>
</defs>
</svg>
