<svg width="67" height="67" viewBox="0 0 67 67" fill="none" xmlns="http://www.w3.org/2000/svg">
<path d="M59.7355 14.5254H53.9141V12.3008H57.1962C57.3673 12.3009 57.5368 12.2671 57.6948 12.2014C57.8529 12.1357 57.9964 12.0394 58.117 11.918C58.2377 11.7966 58.3331 11.6525 58.3978 11.4941C58.4626 11.3356 58.4953 11.166 58.4942 10.9948V6.72382C58.4942 6.00108 57.9184 5.36523 57.1962 5.36523H48.1339C47.4112 5.36523 46.8477 6.00108 46.8477 6.72382V10.9948C46.8452 11.1653 46.8767 11.3346 46.9402 11.4929C47.0037 11.6512 47.098 11.7952 47.2177 11.9167C47.3374 12.0383 47.48 12.1348 47.6373 12.2007C47.7945 12.2666 47.9634 12.3006 48.1339 12.3008H51.2969V14.5254H34.8086V12.3008H38.0312C38.7539 12.3008 39.3887 11.7175 39.3887 10.9948V6.72382C39.3796 6.36655 39.2337 6.0264 38.9811 5.77359C38.7285 5.52079 38.3884 5.37461 38.0312 5.36523H28.9689C28.6116 5.37461 28.2716 5.52079 28.019 5.77359C27.7664 6.0264 27.6205 6.36655 27.6114 6.72382V10.9948C27.6114 11.7175 28.2461 12.3008 28.9689 12.3008H32.1914V14.5254H15.7031V12.3008H18.8661C19.0367 12.3006 19.2055 12.2666 19.3628 12.2007C19.5201 12.1348 19.6627 12.0383 19.7823 11.9167C19.902 11.7952 19.9963 11.6512 20.0599 11.4929C20.1234 11.3346 20.1548 11.1653 20.1524 10.9948V6.72382C20.1524 6.00108 19.5889 5.36523 18.8661 5.36523H9.80387C9.08166 5.36523 8.50588 6.00108 8.50588 6.72382V10.9948C8.50474 11.166 8.53748 11.3356 8.60221 11.4941C8.66693 11.6525 8.76237 11.7966 8.88303 11.918C9.00368 12.0394 9.14716 12.1357 9.3052 12.2014C9.46324 12.2671 9.63272 12.3009 9.80387 12.3008H13.086V14.5254H7.26455C6.54181 14.5254 6.01955 15.125 6.01955 15.8471V42.8434C6.01348 43.009 6.04144 43.1741 6.10171 43.3286C6.16198 43.483 6.25328 43.6234 6.36996 43.7411C6.48664 43.8589 6.62623 43.9514 6.7801 44.0131C6.93397 44.0747 7.09885 44.1042 7.26455 44.0996H29.3125V60.2762C29.3125 60.9989 29.8683 61.6348 30.591 61.6348H36.409C37.1318 61.6348 37.6875 60.9989 37.6875 60.2762V44.0996H59.7355C59.9012 44.1042 60.0661 44.0747 60.2199 44.0131C60.3738 43.9514 60.5134 43.8589 60.6301 43.7411C60.7468 43.6234 60.8381 43.483 60.8983 43.3286C60.9586 43.1741 60.9866 43.009 60.9805 42.8434V15.8471C60.9805 15.125 60.4582 14.5254 59.7355 14.5254ZM49.4649 9.68359V7.98242H55.877V9.68359H49.4649ZM30.2285 9.68359V7.98242H36.7715V9.68359H30.2285ZM11.1231 9.68359V7.98242H17.5352V9.68359H11.1231ZM35.0703 59.0176H31.9297V44.0996H35.0703V59.0176ZM58.3633 41.4824H8.63674V17.1426H58.3633V41.4824Z" fill="url(#paint0_linear)"/>
<path d="M14.5254 37.2949H32.0605C32.4076 37.2949 32.7405 37.1571 32.9859 36.9116C33.2313 36.6662 33.3691 36.3334 33.3691 35.9863V22.6387C33.3691 22.2916 33.2313 21.9588 32.9859 21.7134C32.7405 21.4679 32.4076 21.3301 32.0605 21.3301H14.5254C14.1783 21.3301 13.8455 21.4679 13.6001 21.7134C13.3547 21.9588 13.2168 22.2916 13.2168 22.6387V35.9863C13.2168 36.3334 13.3547 36.6662 13.6001 36.9116C13.8455 37.1571 14.1783 37.2949 14.5254 37.2949ZM15.834 23.9473H30.8828V34.6777H15.834V23.9473Z" fill="url(#paint1_linear)"/>
<path d="M38.2913 33.2383H52.4391C52.7862 33.2383 53.119 33.1004 53.3644 32.855C53.6098 32.6096 53.7477 32.2767 53.7477 31.9297C53.7477 31.5826 53.6098 31.2498 53.3644 31.0044C53.119 30.759 52.7862 30.6211 52.4391 30.6211H38.2913C37.9442 30.6211 37.6114 30.759 37.3659 31.0044C37.1205 31.2498 36.9827 31.5826 36.9827 31.9297C36.9827 32.2767 37.1205 32.6096 37.3659 32.855C37.6114 33.1004 37.9442 33.2383 38.2913 33.2383Z" fill="url(#paint2_linear)"/>
<path d="M38.2913 28.1348H52.4391C52.7862 28.1348 53.119 27.9969 53.3644 27.7515C53.6098 27.5061 53.7477 27.1732 53.7477 26.8262C53.7477 26.4791 53.6098 26.1463 53.3644 25.9009C53.119 25.6554 52.7862 25.5176 52.4391 25.5176H38.2913C37.9442 25.5176 37.6114 25.6554 37.3659 25.9009C37.1205 26.1463 36.9827 26.4791 36.9827 26.8262C36.9827 27.1732 37.1205 27.5061 37.3659 27.7515C37.6114 27.9969 37.9442 28.1348 38.2913 28.1348Z" fill="url(#paint3_linear)"/>
<defs>
<linearGradient id="paint0_linear" x1="33.5" y1="1.83203" x2="33.5" y2="66.2233" gradientUnits="userSpaceOnUse">
<stop stop-color="#00EFD1"/>
<stop offset="1" stop-color="#00ACEA"/>
</linearGradient>
<linearGradient id="paint1_linear" x1="3600.33" y1="244.838" x2="3600.33" y2="8100.58" gradientUnits="userSpaceOnUse">
<stop stop-color="#00EFD1"/>
<stop offset="1" stop-color="#00ACEA"/>
</linearGradient>
<linearGradient id="paint2_linear" x1="5848.94" y1="67.2617" x2="5848.94" y2="1355.09" gradientUnits="userSpaceOnUse">
<stop stop-color="#00EFD1"/>
<stop offset="1" stop-color="#00ACEA"/>
</linearGradient>
<linearGradient id="paint3_linear" x1="5848.94" y1="62.1582" x2="5848.94" y2="1349.98" gradientUnits="userSpaceOnUse">
<stop stop-color="#00EFD1"/>
<stop offset="1" stop-color="#00ACEA"/>
</linearGradient>
</defs>
</svg>
