<svg width="67" height="67" viewBox="0 0 67 67" fill="none" xmlns="http://www.w3.org/2000/svg">
<path d="M33.5 14.2075C33.8471 14.2075 34.1799 14.0696 34.4253 13.8242C34.6707 13.5788 34.8086 13.2459 34.8086 12.8989V5.53292C34.8086 5.18586 34.6707 4.85301 34.4253 4.60761C34.1799 4.3622 33.8471 4.22433 33.5 4.22433C33.1529 4.22433 32.8201 4.3622 32.5747 4.60761C32.3293 4.85301 32.1914 5.18586 32.1914 5.53292V12.8989C32.1914 13.2459 32.3293 13.5788 32.5747 13.8242C32.8201 14.0696 33.1529 14.2075 33.5 14.2075Z" fill="url(#paint0_linear)"/>
<path d="M44.2673 22.3401C42.634 20.8 40.6892 19.6283 38.5643 18.9042C36.4393 18.1801 34.1837 17.9204 31.9499 18.1427C29.716 18.365 27.5558 19.0641 25.6152 20.1927C23.6746 21.3214 21.9988 22.8533 20.701 24.6851C19.4032 26.5168 18.5136 28.6058 18.0923 30.8108C17.6709 33.0158 17.7276 35.2856 18.2586 37.4668C18.7896 39.6481 19.7825 41.6899 21.1702 43.4546C22.5579 45.2192 24.3082 46.6655 26.3027 47.6958V55.5157C26.3003 56.4671 26.4854 57.4097 26.8474 58.2896C27.2094 59.1695 27.7413 59.9694 28.4126 60.6437C29.0839 61.3179 29.8815 61.8532 30.7598 62.2191C31.6381 62.5849 32.5799 62.7741 33.5314 62.7757C34.4799 62.7742 35.4188 62.5847 36.2937 62.2182C37.1685 61.8516 37.9621 61.3153 38.6284 60.6402C39.2948 59.9651 39.8207 59.1646 40.1758 58.285C40.5309 57.4054 40.7081 56.4642 40.6972 55.5157V47.7395C42.9258 46.5835 44.8454 44.9112 46.2959 42.8621C47.7463 40.813 48.6855 38.4466 49.0349 35.9606C49.3843 33.4745 49.1339 30.9409 48.3045 28.5714C47.4751 26.2019 46.0909 24.0652 44.2673 22.3397V22.3401ZM36.7838 58.8481C36.1586 59.4649 35.3719 59.8925 34.5143 60.0815C33.6567 60.2705 32.7631 60.2132 31.9366 59.9163C31.1102 59.6194 30.3845 59.0949 29.8432 58.4033C29.3019 57.7118 28.9672 56.8813 28.8775 56.0077H38.123C38.0196 57.0812 37.5461 58.0853 36.7838 58.8481V58.8481ZM28.9199 53.3905V51.1659H38.0801V53.3905H28.9199ZM38.8725 45.7381C38.6417 45.8411 38.4448 46.0073 38.3046 46.2175C38.1643 46.4278 38.0865 46.6734 38.0801 46.9261V48.5487H28.9199V46.872C28.9136 46.6163 28.8341 46.3678 28.6909 46.1559C28.5477 45.944 28.3467 45.7776 28.1118 45.6763C25.4624 44.466 23.2925 42.4062 21.9458 39.8233C20.5992 37.2404 20.1529 34.282 20.6775 31.4168C21.2021 28.5516 22.6677 25.9433 24.8421 24.0051C27.0166 22.0669 29.7755 20.9096 32.682 20.7165C32.9614 20.6995 33.2373 20.6903 33.5144 20.6903C35.2336 20.6905 36.9359 21.0298 38.5238 21.6887C40.1118 22.3476 41.5541 23.3133 42.7684 24.5303C43.9827 25.7474 44.945 27.192 45.6003 28.7814C46.2556 30.3709 46.591 32.0739 46.5872 33.7931C46.5868 38.8952 43.5489 43.5838 38.8725 45.7381Z" fill="url(#paint1_linear)"/>
<path d="M13.3428 31.7988H5.97687C5.62981 31.7988 5.29696 31.9367 5.05155 32.1821C4.80614 32.4275 4.66827 32.7604 4.66827 33.1074C4.66827 33.4545 4.80614 33.7873 5.05155 34.0327C5.29696 34.2781 5.62981 34.416 5.97687 34.416H13.3428C13.6899 34.416 14.0227 34.2781 14.2681 34.0327C14.5135 33.7873 14.6514 33.4545 14.6514 33.1074C14.6514 32.7604 14.5135 32.4275 14.2681 32.1821C14.0227 31.9367 13.6899 31.7988 13.3428 31.7988Z" fill="url(#paint2_linear)"/>
<path d="M61.0231 31.7988H53.6572C53.3101 31.7988 52.9773 31.9367 52.7319 32.1821C52.4864 32.4275 52.3486 32.7604 52.3486 33.1074C52.3486 33.4545 52.4864 33.7873 52.7319 34.0327C52.9773 34.2781 53.3101 34.416 53.6572 34.416H61.0231C61.3702 34.416 61.703 34.2781 61.9484 34.0327C62.1938 33.7873 62.3317 33.4545 62.3317 33.1074C62.3317 32.7604 62.1938 32.4275 61.9484 32.1821C61.703 31.9367 61.3702 31.7988 61.0231 31.7988Z" fill="url(#paint3_linear)"/>
<path d="M18.3738 19.7256C18.6205 19.9697 18.9541 20.1058 19.3012 20.104C19.6483 20.1021 19.9804 19.9625 20.2245 19.7158C20.4686 19.4691 20.6048 19.1355 20.6029 18.7885C20.6011 18.4414 20.4615 18.1093 20.2148 17.8651L14.9738 12.679C14.8517 12.5582 14.7069 12.4625 14.5478 12.3976C14.3887 12.3327 14.2184 12.2997 14.0465 12.3006C13.6995 12.3024 13.3674 12.442 13.1232 12.6887C12.8791 12.9354 12.743 13.269 12.7448 13.616C12.7466 13.9631 12.8862 14.2952 13.1329 14.5393L18.3738 19.7256Z" fill="url(#paint4_linear)"/>
<path d="M47.7057 20.104C48.0505 20.1045 48.3814 19.9684 48.6262 19.7256L53.8671 14.5393C53.9892 14.4185 54.0864 14.2747 54.153 14.1163C54.2196 13.9579 54.2543 13.7879 54.2552 13.616C54.2561 13.4442 54.2231 13.2739 54.1582 13.1147C54.0933 12.9556 53.9976 12.8109 53.8768 12.6887C53.7559 12.5666 53.6121 12.4694 53.4537 12.4028C53.2953 12.3362 53.1253 12.3015 52.9535 12.3006C52.7816 12.2997 52.6113 12.3327 52.4522 12.3976C52.2931 12.4625 52.1483 12.5582 52.0262 12.679L46.7852 17.8651C46.6008 18.0476 46.4748 18.2807 46.4232 18.535C46.3715 18.7892 46.3966 19.0531 46.4953 19.293C46.5939 19.5329 46.7617 19.7381 46.9772 19.8825C47.1927 20.0269 47.4463 20.104 47.7057 20.104Z" fill="url(#paint5_linear)"/>
<defs>
<linearGradient id="paint0_linear" x1="33.5" y1="1.30878" x2="33.5" y2="65.6937" gradientUnits="userSpaceOnUse">
<stop stop-color="#00EFD1"/>
<stop offset="1" stop-color="#00ACEA"/>
</linearGradient>
<linearGradient id="paint1_linear" x1="33.5007" y1="18.0656" x2="33.5007" y2="62.7757" gradientUnits="userSpaceOnUse">
<stop stop-color="#00EFD1"/>
<stop offset="1" stop-color="#00ADEA"/>
</linearGradient>
<linearGradient id="paint2_linear" x1="741.603" y1="57.9707" x2="741.603" y2="1345.67" gradientUnits="userSpaceOnUse">
<stop stop-color="#00EFD1"/>
<stop offset="1" stop-color="#00ACEA"/>
</linearGradient>
<linearGradient id="paint3_linear" x1="4426.78" y1="57.9707" x2="4426.78" y2="1345.67" gradientUnits="userSpaceOnUse">
<stop stop-color="#00EFD1"/>
<stop offset="1" stop-color="#00ACEA"/>
</linearGradient>
<linearGradient id="paint4_linear" x1="1014.02" y1="90.3346" x2="1014.02" y2="3929.73" gradientUnits="userSpaceOnUse">
<stop stop-color="#00EFD1"/>
<stop offset="1" stop-color="#00ACEA"/>
</linearGradient>
<linearGradient id="paint5_linear" x1="3068.54" y1="90.3347" x2="3068.54" y2="3929.74" gradientUnits="userSpaceOnUse">
<stop stop-color="#00EFD1"/>
<stop offset="1" stop-color="#00ACEA"/>
</linearGradient>
</defs>
</svg>
