<svg width="65" height="65" viewBox="0 0 65 65" fill="none" xmlns="http://www.w3.org/2000/svg">
<path d="M54.2229 2.15831H10.7772C10.5291 2.15303 10.2824 2.19771 10.0519 2.28967C9.82138 2.38163 9.61171 2.51901 9.43535 2.69363C9.25899 2.86825 9.11954 3.07655 9.02529 3.30614C8.93105 3.53574 8.88393 3.78194 8.88675 4.03011V30.4925C8.88629 32.073 9.40629 33.6097 10.3664 34.8652C11.3266 36.1206 12.6734 37.025 14.1988 37.4386L25.8024 40.5588L25.8736 40.5696C26.1627 40.6183 26.4255 40.7672 26.6157 40.9902C26.806 41.2133 26.9116 41.4962 26.9141 41.7894L26.902 41.8002L26.8365 42.2064C26.7633 42.6635 25.0429 53.4379 25.0429 55.5065C25.0429 57.4669 25.8217 59.3469 27.2078 60.733C28.5939 62.1192 30.474 62.8979 32.4343 62.8979C34.3946 62.8979 36.2746 62.1192 37.6607 60.733C39.0469 59.3469 39.8256 57.4669 39.8256 55.5065C39.8256 53.5154 38.3317 44.0781 38.0323 42.2064L38.0137 42.113C37.928 41.7729 37.9778 41.4128 38.1526 41.1088C38.3093 40.8384 38.5668 40.6412 38.8686 40.5604C38.9785 40.5401 39.0858 40.5073 39.1883 40.4627L50.7142 37.3665C52.2354 36.9542 53.5796 36.0549 54.5411 34.8062C55.5027 33.5575 56.0287 32.0282 56.0387 30.4522L56.0649 24.7707L56.1505 4.05804C56.1497 3.80644 56.099 3.5575 56.0015 3.32557C55.904 3.09364 55.7615 2.8833 55.5823 2.7067C55.4031 2.5301 55.1907 2.39072 54.9574 2.2966C54.7241 2.20247 54.4744 2.15548 54.2229 2.15831ZM53.4992 30.4353C53.4932 31.4556 53.1532 32.4458 52.5313 33.2546C51.9094 34.0634 51.0397 34.6463 50.0552 34.9142L38.5587 38.0026C38.4555 38.0227 38.3546 38.0538 38.258 38.0953C37.7801 38.2164 37.3311 38.4314 36.9372 38.7278C36.5434 39.0243 36.2124 39.3962 35.9638 39.8219C35.4641 40.6751 35.3094 41.6871 35.5315 42.6506C36.406 48.1194 37.286 54.2045 37.286 55.5069C37.2795 56.7896 36.7654 58.0174 35.8561 58.922C34.9468 59.8267 33.7163 60.3345 32.4337 60.3345C31.1511 60.3345 29.9206 59.8267 29.0113 58.922C28.102 58.0174 27.5879 56.7896 27.5814 55.5069C27.5814 54.1428 28.6 47.2665 29.3072 42.8303C29.3741 42.6666 29.4127 42.4927 29.4214 42.3161C29.674 40.2773 28.2975 38.3994 26.3111 38.0697L14.8579 34.9874C13.8713 34.7195 13.0005 34.134 12.3801 33.3215C11.7597 32.509 11.4243 31.5147 11.4258 30.4925V26.0255H53.5202L53.4992 30.4353ZM53.5312 23.4864H11.4258V4.69737H15.4883V14.7598C15.4883 15.0965 15.6221 15.4194 15.8601 15.6575C16.0982 15.8956 16.4211 16.0293 16.7578 16.0293C17.0945 16.0293 17.4175 15.8956 17.6555 15.6575C17.8936 15.4194 18.0274 15.0965 18.0274 14.7598V4.69737H23.3594V14.7598C23.3594 15.0965 23.4932 15.4194 23.7312 15.6575C23.9693 15.8956 24.2922 16.0293 24.6289 16.0293C24.9656 16.0293 25.2885 15.8956 25.5266 15.6575C25.7647 15.4194 25.8985 15.0965 25.8985 14.7598V4.69737H31.2305V14.7598C31.2305 15.0965 31.3642 15.4194 31.6023 15.6575C31.8404 15.8956 32.1633 16.0293 32.5 16.0293C32.8367 16.0293 33.1596 15.8956 33.3977 15.6575C33.6358 15.4194 33.7696 15.0965 33.7696 14.7598V4.69737H39.1016V14.7598C39.1016 15.0965 39.2353 15.4194 39.4734 15.6575C39.7115 15.8956 40.0344 16.0293 40.3711 16.0293C40.7078 16.0293 41.0307 15.8956 41.2688 15.6575C41.5069 15.4194 41.6407 15.0965 41.6407 14.7598V4.69737H46.9727V14.7598C46.9727 15.0965 47.1064 15.4194 47.3445 15.6575C47.5826 15.8956 47.9055 16.0293 48.2422 16.0293C48.5789 16.0293 48.9018 15.8956 49.1399 15.6575C49.378 15.4194 49.5117 15.0965 49.5117 14.7598V4.69737H53.609L53.5312 23.4864Z" fill="url(#paint0_linear)"/>
<defs>
<linearGradient id="paint0_linear" x1="32.5187" y1="4.31651" x2="32.5187" y2="61.4177" gradientUnits="userSpaceOnUse">
<stop stop-color="#00EFD1"/>
<stop offset="1" stop-color="#00ACEA"/>
</linearGradient>
</defs>
</svg>
