<svg width="65" height="65" viewBox="0 0 65 65" fill="none" xmlns="http://www.w3.org/2000/svg">
<path d="M60.3628 9.78049C60.153 9.73211 59.9344 9.73788 59.7275 9.79724C59.5205 9.8566 59.3321 9.96761 59.1798 10.1198L55.3395 13.9603L51.2591 9.84701L55.1133 5.99284C55.2644 5.84177 55.3749 5.65502 55.4346 5.44988C55.4943 5.24473 55.5012 5.02784 55.4548 4.8193C55.4084 4.61075 55.3101 4.41729 55.169 4.25684C55.0279 4.09639 54.8486 3.97414 54.6477 3.90142C50.7028 2.47332 46.213 3.48692 43.2061 6.48644C41.5619 8.12947 40.4867 10.2556 40.138 12.5538L34.038 10.1975L31.304 13.3683C29.3518 13.1737 27.3828 13.2252 25.4435 13.5214L22.5275 10.4794L14.2968 14.0828L14.606 18.2976C13.0672 19.5197 11.706 20.9499 10.5614 22.547L6.34437 22.4278L3.1124 30.8075L6.28242 33.5478C6.08735 35.4982 6.13874 37.4655 6.43539 39.4031L3.39309 42.3188L6.99653 50.5495L11.21 50.2403C12.432 51.7802 13.862 53.1428 15.459 54.2892L15.3327 58.5009L23.7212 61.7415L26.4622 58.5636C28.4124 58.7602 30.3796 58.7108 32.3175 58.4166L35.2331 61.4517L43.4631 57.8567L43.154 53.6356C44.6946 52.4155 46.0563 50.9852 47.199 49.3864L51.416 49.5131L54.6484 41.1238L51.4775 38.3908C51.6716 36.4389 51.6219 34.4704 51.3294 32.5307L54.3663 29.6134L52.4125 25.1473C54.7881 24.8125 56.9906 23.7147 58.6879 22.0193C61.6366 19.0705 62.6532 14.5897 61.2777 10.6039C61.2076 10.4003 61.0868 10.2179 60.9267 10.0739C60.7667 9.92985 60.5726 9.82888 60.3628 9.78049ZM48.5967 31.6347L48.7183 32.305C49.1027 34.4334 49.1578 36.6082 48.8815 38.7534L48.7951 39.43L51.6358 41.8792L49.6934 46.9214L45.8795 46.8071L45.4892 47.3947C44.3004 49.1827 42.809 50.7497 41.082 52.0255L40.5207 52.4414L40.8 56.25L35.8386 58.4171L33.2107 55.6812L32.5385 55.8052C30.414 56.1924 28.2422 56.2472 26.1008 55.9678L25.424 55.8812L22.9677 58.7287L17.925 56.7807L18.0393 52.9759L17.4561 52.5841C15.6689 51.3892 14.1009 49.8953 12.8209 48.1679L12.4047 47.6076L8.6021 47.8869L6.43019 42.925L9.17238 40.2971L9.04771 39.6235C8.65776 37.4997 8.60066 35.3283 8.87848 33.187L8.96494 32.5111L6.1241 30.0546L8.06725 25.0164L11.8804 25.1243L12.2702 24.5396C13.4625 22.7528 14.9543 21.1852 16.6797 19.9058L17.2392 19.4897L16.961 15.6884L21.9216 13.5165L24.5496 16.2587L25.2224 16.1344C27.349 15.7451 29.5231 15.688 31.6672 15.9651L32.344 16.0515L34.7927 13.2115L40.0537 15.2434C40.1093 15.8817 40.2194 16.5141 40.3828 17.1336L35.6568 21.865C32.3479 20.2759 28.5856 19.9011 25.0282 20.8061C21.4708 21.7111 18.345 23.8383 16.1978 26.8155C14.0506 29.7926 13.0187 33.43 13.2828 37.0912C13.5468 40.7524 15.09 44.2041 17.6423 46.8423C20.1945 49.4805 23.5933 51.1371 27.2437 51.5222C30.8941 51.9073 34.5638 50.9964 37.6103 48.9489C40.6569 46.9014 42.8864 43.8477 43.9087 40.3222C44.931 36.7968 44.6809 33.0241 43.2022 29.6644L48.0318 24.8562C48.5636 25.0021 49.1054 25.1084 49.6529 25.1743L51.3302 29.0083L48.5967 31.6347ZM38.4052 34.4349L41.2439 31.6125C42.2412 34.4394 42.2403 37.5227 41.2414 40.349C40.2425 43.1754 38.3059 45.5745 35.7537 47.147C33.2016 48.7195 30.1879 49.3707 27.2142 48.992C24.2405 48.6134 21.4862 47.2278 19.4096 45.0659C17.3329 42.904 16.0593 40.0962 15.8005 37.1097C15.5418 34.1232 16.3136 31.1381 17.9874 28.6513C19.6613 26.1644 22.1363 24.3258 25.0006 23.4414C27.8649 22.557 30.9456 22.6801 33.7302 23.7903L30.7425 26.7737C27.5957 26.193 24.4499 27.1434 22.2069 29.3864C21.3153 30.2735 20.6085 31.3286 20.1275 32.4906C19.6464 33.6527 19.4006 34.8987 19.4043 36.1564C19.4022 38.7074 20.4098 41.1556 22.2069 42.9662C23.094 43.8577 24.1491 44.5645 25.3111 45.0456C26.4732 45.5266 27.7191 45.7724 28.9768 45.7688C31.5278 45.7708 33.976 44.7633 35.7866 42.9662C38.0264 40.7267 38.9791 37.5825 38.4052 34.4349ZM56.8924 20.2238C56.0672 21.0503 55.0803 21.6976 53.9934 22.125C52.9065 22.5524 51.743 22.7508 50.5759 22.7077C49.7327 22.6666 48.9001 22.502 48.1047 22.2192C47.8791 22.1391 47.6354 22.1245 47.4017 22.177C47.1681 22.2295 46.9541 22.347 46.7844 22.5159L40.7494 28.5241L36.1212 33.1258C35.9642 33.2819 35.8508 33.4763 35.7921 33.6898C35.7335 33.9033 35.7317 34.1285 35.787 34.3429C36.4328 36.8483 35.7616 39.4009 33.9986 41.1638C31.2183 43.8993 26.7338 43.9024 24.0098 41.1784C21.2743 38.3981 21.271 33.9138 24.0025 31.1824C24.6505 30.5338 25.4207 30.0201 26.2684 29.671C27.1162 29.3219 28.0247 29.1444 28.9415 29.1486C29.5781 29.1495 30.212 29.2315 30.8279 29.3927C31.0419 29.4484 31.2667 29.4472 31.4801 29.3893C31.6935 29.3314 31.888 29.2188 32.0445 29.0626L36.7595 24.3543L36.7607 24.3532L42.7161 18.3911C42.8841 18.2229 43.0015 18.0109 43.0549 17.7793C43.1084 17.5476 43.0957 17.3056 43.0183 17.0808C42.7106 16.1833 42.5515 15.2416 42.5472 14.2928C42.5366 13.1781 42.7482 12.0725 43.1697 11.0406C43.5912 10.0086 44.2141 9.07096 45.002 8.28244C45.872 7.41428 46.9203 6.74545 48.0742 6.3222C49.2281 5.89896 50.4602 5.7314 51.6853 5.83111L48.5696 8.94615C48.3321 9.1836 48.1984 9.50548 48.1977 9.8413C48.197 10.1771 48.3294 10.4995 48.5659 10.738L54.4347 16.645C54.5528 16.7626 54.693 16.8555 54.8473 16.9185C55.0016 16.9815 55.1668 17.0132 55.3334 17.0119H55.336C55.5022 17.0134 55.667 16.9821 55.8211 16.9197C55.9751 16.8574 56.1153 16.7651 56.2336 16.6484L59.32 13.5662C59.4169 14.7852 59.2503 16.0107 58.8314 17.1594C58.4125 18.3082 57.7512 19.3534 56.8924 20.2238Z" fill="url(#paint0_linear)"/>
<path d="M29.0056 32.029C28.1839 32.0262 27.3798 32.2676 26.6955 32.7225C26.0112 33.1774 25.4775 33.8254 25.162 34.5842C24.8466 35.343 24.7637 36.1784 24.9239 36.9844C25.084 37.7904 25.48 38.5306 26.0616 39.1112C26.4436 39.4962 26.898 39.8018 27.3988 40.0103C27.8995 40.2187 28.4366 40.3259 28.9789 40.3257C30.0751 40.3222 31.127 39.8932 31.9131 39.1293L31.929 39.1138C32.5102 38.5346 32.9066 37.7961 33.0679 36.9916C33.2292 36.187 33.1483 35.3527 32.8353 34.5942C32.5223 33.8357 31.9914 33.1871 31.3096 32.7305C30.6279 32.2739 29.826 32.0297 29.0055 32.029H29.0056ZM30.1468 37.3054C29.4739 37.9443 28.4909 37.9497 27.8569 37.3158C27.5598 37.0071 27.3937 36.5953 27.3937 36.1669C27.3937 35.7384 27.5598 35.3266 27.8569 35.0179C28.006 34.8656 28.1837 34.7442 28.3797 34.6607C28.5758 34.5771 28.7864 34.5331 28.9995 34.5311H29.0021C29.3204 34.5379 29.6298 34.6374 29.8925 34.8173C30.1552 34.9972 30.3597 35.2497 30.4812 35.544C30.6027 35.8383 30.6358 36.1616 30.5765 36.4744C30.5171 36.7872 30.368 37.076 30.1472 37.3054H30.1468Z" fill="url(#paint1_linear)"/>
<defs>
<linearGradient id="paint0_linear" x1="32.4973" y1="1.01577" x2="32.4973" y2="65.1134" gradientUnits="userSpaceOnUse">
<stop stop-color="#00EFD1"/>
<stop offset="1" stop-color="#00ACEA"/>
</linearGradient>
<linearGradient id="paint1_linear" x1="1921.58" y1="98.4032" x2="1921.58" y2="4287.38" gradientUnits="userSpaceOnUse">
<stop stop-color="#00EFD1"/>
<stop offset="1" stop-color="#00ACEA"/>
</linearGradient>
</defs>
</svg>
